<svg xmlns="http://www.w3.org/2000/svg" viewBox="2667 40 16 16"><defs><style>.a{opacity:0.093;}</style></defs><g class="a" transform="translate(2664 40)"><g transform="translate(3)"><path d="M0,0V16H16V0ZM10.327,6.486a2.621,2.621,0,0,0-2.4,1.443,2.624,2.624,0,0,0,2.4,1.422h.97V8.309L14.2,10.061l-2.905,1.8v-.785h-.97A4.135,4.135,0,0,1,6.893,9.435a4.053,4.053,0,0,1-3.407,1.7H1.946V9.405h1.54a2.587,2.587,0,0,0,2.359-1.47A2.589,2.589,0,0,0,3.486,6.486H1.946V4.757h1.54a4.062,4.062,0,0,1,3.4,1.673,4.124,4.124,0,0,1,3.444-1.673h.97v-.73L14.2,5.83,11.3,7.583v-1.1Z"/></g></g></svg>