<svg xmlns="http://www.w3.org/2000/svg" viewBox="2692 40 16 16"><defs><style>.a{opacity:0.43;}</style></defs><g class="a" transform="translate(2692 37.529)"><g transform="translate(0 2.471)"><path d="M2.721,2.471a1.905,1.905,0,0,0,0,3.81,1.905,1.905,0,0,0,0-3.81Z" transform="translate(-0.801 -2.471)"/><path d="M107.24,2.471a1.905,1.905,0,1,0,1.871,1.905A1.89,1.89,0,0,0,107.24,2.471Z" transform="translate(-99.264 -2.471)"/><path d="M213.45,6.281a1.905,1.905,0,1,0-1.871-1.905A1.89,1.89,0,0,0,213.45,6.281Z" transform="translate(-199.321 -2.471)"/><path d="M1.871,109.759a1.905,1.905,0,0,0,0-3.81,1.905,1.905,0,0,0,0,3.81Z" transform="translate(0 -99.845)"/><path d="M106.4,109.759a1.905,1.905,0,1,0-1.871-1.905A1.89,1.89,0,0,0,106.4,109.759Z" transform="translate(-98.469 -99.845)"/><path d="M212.6,109.759a1.905,1.905,0,1,0-1.872-1.905A1.89,1.89,0,0,0,212.6,109.759Z" transform="translate(-198.523 -99.845)"/><path d="M2.61,209.108a1.905,1.905,0,0,0,0,3.81,1.905,1.905,0,0,0,0-3.81Z" transform="translate(-0.696 -196.918)"/><path d="M107.135,209.108a1.905,1.905,0,1,0,1.871,1.905A1.89,1.89,0,0,0,107.135,209.108Z" transform="translate(-99.165 -196.918)"/><path d="M213.348,209.108a1.905,1.905,0,1,0,1.871,1.905A1.89,1.89,0,0,0,213.348,209.108Z" transform="translate(-199.225 -196.918)"/></g></g></svg>