<svg xmlns="http://www.w3.org/2000/svg" viewBox="1994.144 490.797 71.856 44.203"><defs><style>.a{opacity:0.349;}.b,.d{fill:#838688;}.b{stroke:#f6faff;}.b,.c{stroke-width:1px;}.c{fill:none;stroke:#838688;}.e{fill:#848789;}.f{fill:#cbcccc;font-size:12px;font-family:Helvetica Neue;font-weight:700;}</style></defs><g transform="translate(1933 -25)"><g class="a" transform="translate(-13 8.946)"><path class="b" d="M8.216,6.395h0q-.1-.089-.2-.174A7.219,7.219,0,0,0,3.361,4.509a7.3,7.3,0,0,0-1.138.09A7.2,7.2,0,0,0,0,5.334a7.218,7.218,0,0,1,13.874-.215L13.751,5.1a7.285,7.285,0,0,0-1.262-.111A7.158,7.158,0,0,0,8.216,6.395Z" transform="translate(79.285 507.352)"/><line class="c" y2="16.09" transform="translate(86.253 523.914)"/><line class="c" x1="3.076" y2="10.529" transform="translate(86.253 528.41)"/><line class="c" x2="2.129" y2="11.121" transform="translate(84.124 528.41)"/><path class="d" d="M3.905,16.72h0a4.339,4.339,0,0,1-.751-.065A5.362,5.362,0,0,1,0,14.645,11.669,11.669,0,0,0,2.8,5.612a7.138,7.138,0,0,0-2.265-4.2A7.157,7.157,0,0,1,4.809,0a7.223,7.223,0,0,1,7.115,8.471C11.266,12.207,7.542,16.72,3.905,16.72Z" transform="translate(86.965 512.574)"/><path class="d" d="M7.217,0a7.217,7.217,0,0,1,7.217,7.217c0,3.986-3.231,9.583-7.217,9.583S0,11.2,0,7.217A7.217,7.217,0,0,1,7.217,0Z" transform="translate(74.144 513.316) rotate(-9)"/><rect class="e" width="10.529" height="10.529" transform="translate(80.989 538.525)"/></g><text class="f" transform="translate(77 545)"><tspan x="3.98" y="12">DockDev</tspan></text></g></svg>