<svg xmlns="http://www.w3.org/2000/svg" viewBox="2658 -9 16 16"><defs><style>.a{opacity:0.432;}</style></defs><g class="a" transform="translate(2658 -9)"><g transform="translate(0)"><path d="M215.164,8.743a.51.51,0,0,1-.542-.47l-.01-7.8A.51.51,0,0,1,215.154,0h0a.51.51,0,0,1,.542.47l.01,7.8a.51.51,0,0,1-.542.471Z" transform="translate(-207.164)"/><path d="M38.248,82.846c-4.411,0-8-3.113-8-6.94,0-3.029,2.232-5.685,5.555-6.61a.562.562,0,0,1,.682.3.461.461,0,0,1-.351.592,6.133,6.133,0,0,0-4.8,5.713c0,3.308,3.1,6,6.915,6s6.915-2.691,6.915-6a6.133,6.133,0,0,0-4.8-5.713.461.461,0,0,1-.351-.592.562.562,0,0,1,.682-.3c3.322.925,5.555,3.581,5.555,6.61C46.248,79.733,42.659,82.846,38.248,82.846Z" transform="translate(-30.248 -66.846)"/></g></g></svg>