<svg xmlns="http://www.w3.org/2000/svg" viewBox="2645 40 16 16"><defs><style>.a{opacity:0.09;}</style></defs><g class="a" transform="translate(2645 39.999)"><g transform="translate(0 0.001)"><path d="M13.337,0H2.663A2.663,2.663,0,0,0,0,2.664V13.338A2.663,2.663,0,0,0,2.663,16H13.337A2.663,2.663,0,0,0,16,13.338V2.664A2.663,2.663,0,0,0,13.337,0ZM11.588,10.4a1.194,1.194,0,0,1-1.195,1.195H5.606A1.194,1.194,0,0,1,4.412,10.4V5.607A1.194,1.194,0,0,1,5.606,4.412h4.788a1.194,1.194,0,0,1,1.195,1.195V10.4Z" transform="translate(0 -0.001)"/><rect width="3.981" height="3.982" transform="translate(6.009 6.009)"/></g></g></svg>