<svg xmlns="http://www.w3.org/2000/svg" viewBox="2091 40 15 15"><defs><style>.a{opacity:0.43;}.b{fill:#010002;}</style></defs><g class="a" transform="translate(2090.992 40)"><g transform="translate(0.008)"><g transform="translate(0)"><path class="b" d="M7.508,0a7.5,7.5,0,1,0,7.5,7.5A7.509,7.509,0,0,0,7.508,0Zm0,13.608A6.108,6.108,0,1,1,13.617,7.5,6.115,6.115,0,0,1,7.508,13.608Z" transform="translate(-0.008)"/><path class="b" d="M76.9,72.811H74.09v-2.8a.637.637,0,1,0-1.275,0v2.8H70.01a.637.637,0,0,0,0,1.275h2.8v2.805a.638.638,0,0,0,1.275,0V74.086h2.8a.637.637,0,1,0,0-1.275Z" transform="translate(-65.953 -65.949)"/></g></g></g></svg>