<svg xmlns="http://www.w3.org/2000/svg" viewBox="2692 -9 16 16"><defs><style>.a{opacity:0.546;}.b{fill:none;}</style></defs><g class="a" transform="translate(2692 -9)"><line class="b" x1="0.033" transform="translate(9.505 16)"/><g transform="translate(0 0)"><path d="M27,20.463V17.469H25.521a6.511,6.511,0,0,0-.862-2.028l1.074-1.068-2.119-2.109-1.091,1.087a6.575,6.575,0,0,0-2.018-.81V11H17.5v1.577a6.521,6.521,0,0,0-2,.862l-1.117-1.11-2.119,2.109,1.153,1.149c-.091.15-.173.3-.251.457a6.733,6.733,0,0,0-.558,1.492H11v2.994h1.642c.049.2.108.389.173.581,0,.013.01.026.013.039s0,.007,0,.013a6.458,6.458,0,0,0,.624,1.313L12.3,23.63l2.119,2.109,1.146-1.14a6.6,6.6,0,0,0,1.966.829V27H20.5V25.462a6.562,6.562,0,0,0,2.06-.836l1.051,1.045,2.119-2.109L24.685,22.52a6.583,6.583,0,0,0,.849-2.054H27Zm-3.1,2.09.976.973-1.2,1.192-.963-.96a5.949,5.949,0,0,1-2.831,1.176v1.384H18.216V24.923a5.961,5.961,0,0,1-2.762-1.166l-1.032,1.029-1.2-1.192,1.058-1.022a5.94,5.94,0,0,1-1.123-2.723H11.682V18.18h1.437l.049-.118a6,6,0,0,1,1.1-2.622L13.22,14.4l1.2-1.192,1.012,1.042a5.983,5.983,0,0,1,2.746-1.176V11.679h1.675V13.06A5.955,5.955,0,0,1,22.657,14.2l.989-.983,1.162,1.192-.967.963A5.973,5.973,0,0,1,25,18.082h1.482v1.669h-1.46a5.936,5.936,0,0,1-1.12,2.8Z" transform="translate(-11 -11)"/><path d="M147.593,143.4a3.677,3.677,0,1,0,3.693,3.677A3.69,3.69,0,0,0,147.593,143.4Zm0,6.671a2.994,2.994,0,1,1,3.007-2.994A2.985,2.985,0,0,1,147.593,150.071Z" transform="translate(-139.56 -139.077)"/></g></g></svg>